<?xml version="1.0" encoding="UTF-8" standalone="no"?>
<svg
   width="16"
   height="16"
   version="1.1"
   id="svg1"
   sodipodi:docname="NodeCameraTransition.svg"
   inkscape:version="1.4.2 (f4327f4, 2025-05-13)"
   xml:space="preserve"
   xmlns:inkscape="http://www.inkscape.org/namespaces/inkscape"
   xmlns:sodipodi="http://sodipodi.sourceforge.net/DTD/sodipodi-0.dtd"
   xmlns="http://www.w3.org/2000/svg"
   xmlns:svg="http://www.w3.org/2000/svg"><defs
     id="defs1"><inkscape:path-effect
       effect="bspline"
       id="path-effect4"
       is_visible="true"
       lpeversion="1.3"
       weight="33.333333"
       steps="2"
       helper_size="0"
       apply_no_weight="true"
       apply_with_weight="true"
       only_selected="false"
       uniform="false" /><inkscape:path-effect
       effect="bspline"
       id="path-effect3"
       is_visible="true"
       lpeversion="1.3"
       weight="33.333333"
       steps="2"
       helper_size="0"
       apply_no_weight="true"
       apply_with_weight="true"
       only_selected="false"
       uniform="false" /><inkscape:path-effect
       effect="spiro"
       id="path-effect2"
       is_visible="true"
       lpeversion="1" /></defs><sodipodi:namedview
     id="namedview1"
     pagecolor="#505050"
     bordercolor="#ffffff"
     borderopacity="1"
     inkscape:showpageshadow="0"
     inkscape:pageopacity="0"
     inkscape:pagecheckerboard="1"
     inkscape:deskcolor="#505050"
     showgrid="false"
     inkscape:zoom="45.254834"
     inkscape:cx="5.4911261"
     inkscape:cy="6.9274367"
     inkscape:window-width="1920"
     inkscape:window-height="1001"
     inkscape:window-x="-9"
     inkscape:window-y="-9"
     inkscape:window-maximized="1"
     inkscape:current-layer="g34" /><g
     id="g6"
     transform="translate(-1.3475589e-5,0.00135747)"
     style="stroke:#e0e0e0;stroke-opacity:1" /><g
     id="g16"
     style="opacity:1;stroke:none;stroke-width:1.6;stroke-dasharray:none;stroke-opacity:1"
     transform="translate(-19.448597,-2.6008525)"><g
       id="path8"
       style="opacity:1"><g
         id="g34"
         transform="translate(0.44826332,-0.17576984)"><path
           id="path1"
           style="opacity:1;fill:#e0e0e0;fill-opacity:1;stroke:none;stroke-width:1.6;stroke-dasharray:none;stroke-opacity:1"
           d="m 28.964222,5.1008525 c -1.573658,-0.00434 -2.883211,1.2080193 -3,2.7773438 -2.564511,-2.3618815 -6.415782,0.8136127 -4.585938,3.7812497 0.402371,-0.519428 0.916413,-1.012962 1.625,-1.351562 0.672081,-0.3211583 1.40476,-0.3947267 2.035157,-0.269531 0.601605,0.119476 1.054942,0.371757 1.386718,0.558593 0.56953,0.320724 0.832827,0.447649 1.083985,0.480469 0.04543,-0.02804 0.09377,-0.05843 0.146484,-0.105469 0.13288,-0.118595 0.312869,-0.340526 0.480469,-0.529297 L 25.972034,9.1125713 31.302113,6.2297588 C 30.734423,5.5182819 29.874423,5.1030103 28.964222,5.1008525 Z m 5,5.0000005 -0.408203,0.271484 -0.08789,3.34375 -2.511719,-1.542969 c -0.339314,0.42167 -0.700945,0.85416 -1.126953,1.234375 -0.452824,0.404147 -1.07039,0.94447 -2.068359,0.97461 -1.414406,0.04271 -2.437077,-0.6585 -2.939453,-0.941407 -0.197947,-0.111476 -0.34538,-0.168376 -0.388672,-0.185547 -0.02421,0.01796 -0.06375,0.04673 -0.09766,0.08008 -0.07776,0.07647 -0.181564,0.187221 -0.292969,0.318359 -0.22281,0.262276 -0.478572,0.606685 -0.667969,0.933594 -0.15112,0.260839 -0.281477,0.513748 -0.386719,0.726562 0.100071,0.459281 0.506507,0.786868 0.976563,0.787109 h 6 c 0.552284,0 0.999999,-0.447715 1,-0.999999 v -1 l 3,1.999999 z"
           sodipodi:nodetypes="ccccssccccccccccsccccssccssccc" /><path
           id="path23"
           style="baseline-shift:baseline;display:inline;overflow:visible;fill:#ff00ff;stroke:none;stroke-width:0.932887;stroke-linecap:round;stroke-dasharray:none;stroke-opacity:1;paint-order:stroke markers fill;enable-background:accumulate;stop-color:#000000;stop-opacity:1"
           d="m 33.212613,5.726624 -6.307918,3.412689 1.955055,1.200727 c -0.300997,0.378223 -0.625313,0.741525 -0.892803,0.98026 -0.185914,0.16593 -0.357006,0.233293 -0.384451,0.256908 l -0.0019,0.0019 v 0.0019 h -0.0019 v 0.0019 h 0.0019 v 0.0019 h 0.0019 l 0.0019,0.0019 c -0.419624,-0.01726 -0.776222,-0.238466 -1.388432,-0.583225 -0.328398,-0.184934 -0.724339,-0.402512 -1.2481,-0.506529 -0.523761,-0.104017 -1.167095,-0.04144 -1.741874,0.233222 -1.158736,0.553705 -1.748272,1.583434 -2.253869,2.456115 -0.505598,0.872682 -0.827209,1.654417 -0.827209,1.654417 a 1.1661084,1.1661084 0 0 0 0.63225,1.523229 1.1661084,1.1661084 0 0 0 1.523229,-0.632249 c 0,0 0.272174,-0.655323 0.690555,-1.377465 0.418381,-0.722144 1.081111,-1.443272 1.240812,-1.519586 0.168871,-0.0807 0.184578,-0.06862 0.282417,-0.04919 0.09784,0.01943 0.285822,0.0966 0.557545,0.24962 0.543446,0.306035 1.440671,0.919792 2.696626,0.88187 0.847421,-0.02559 1.316371,-0.450579 1.771027,-0.856361 0.454656,-0.405783 0.863533,-0.883238 1.22988,-1.350136 0.03731,-0.04754 0.07481,-0.09482 0.111145,-0.142119 l 2.162766,1.328271 z" /></g><g
         id="path32"
         style="opacity:1" /></g></g></svg>
