<?xml version="1.0" encoding="UTF-8" standalone="no"?>
<svg
   width="16"
   height="16"
   version="1.1"
   id="svg1"
   sodipodi:docname="NodeCamera2DMultiplexer.svg"
   inkscape:version="1.4.2 (f4327f4, 2025-05-13)"
   xmlns:inkscape="http://www.inkscape.org/namespaces/inkscape"
   xmlns:sodipodi="http://sodipodi.sourceforge.net/DTD/sodipodi-0.dtd"
   xmlns="http://www.w3.org/2000/svg"
   xmlns:svg="http://www.w3.org/2000/svg">
  <defs
     id="defs1" />
  <sodipodi:namedview
     id="namedview1"
     pagecolor="#505050"
     bordercolor="#ffffff"
     borderopacity="1"
     inkscape:showpageshadow="0"
     inkscape:pageopacity="0"
     inkscape:pagecheckerboard="1"
     inkscape:deskcolor="#505050"
     inkscape:zoom="48.9375"
     inkscape:cx="6.385696"
     inkscape:cy="8.1430396"
     inkscape:window-width="1920"
     inkscape:window-height="1001"
     inkscape:window-x="-9"
     inkscape:window-y="-9"
     inkscape:window-maximized="1"
     inkscape:current-layer="path4" />
  <g
     id="path4"
     style="opacity:1"
     transform="translate(0.6743295,-0.02043423)">
    <path
       id="path15"
       style="baseline-shift:baseline;display:inline;overflow:visible;vector-effect:none;fill:#8da5f3;fill-opacity:1;stroke-linecap:round;stroke-linejoin:round;paint-order:stroke markers fill;enable-background:accumulate;stop-color:#000000;stop-opacity:1"
       d="M 11.216295 1.2880124 L 11.220202 2.6219967 C 9.296851 2.6865277 7.8738586 2.9038432 6.7807486 3.407153 C 7.4127295 3.7044274 7.8955069 4.2279364 8.1577017 4.8348874 C 8.8897641 4.6276708 9.8902719 4.4855566 11.224108 4.4286374 L 11.228014 5.719653 L 15.056139 3.4950436 L 11.216295 1.2880124 z M 5.5756705 4.2001217 C 4.5314058 5.1811052 4.1921172 6.621848 4.0912955 8.2762936 A 0.89999998 0.89999998 0 0 0 4.0854361 8.3212155 A 0.89999998 0.89999998 0 0 0 4.0854361 8.4266842 A 0.89999998 0.89999998 0 0 0 4.0912955 8.4716061 C 4.1596549 9.5933551 4.3381577 10.615506 4.770983 11.463794 L 6.3530143 11.463794 C 6.485853 11.463737 6.5818195 11.368086 6.5815299 11.235278 L 6.5815299 11.000903 C 6.2623502 10.607767 6.0827621 10.091847 5.9780143 9.3485592 L 6.5815299 9.3544186 L 6.5815299 7.5536374 L 5.958483 7.547778 C 6.0969261 6.4243456 6.383262 5.7930484 7.0190299 5.3387936 C 7.0694405 5.3027754 7.1233796 5.2657591 7.1811393 5.2313717 C 6.9223743 4.6431119 6.3780047 4.2019792 5.5952018 4.2001217 C 5.5886295 4.2001007 5.5822258 4.2000711 5.5756705 4.2001217 z M 11.239733 6.2743405 L 11.229967 7.5907467 L 7.6264518 7.5614499 L 7.5971549 9.3622311 L 11.214342 9.391528 L 11.204577 10.705981 L 15.056139 8.5223874 L 11.239733 6.2743405 z M 11.228014 11.028247 L 11.226061 12.319262 C 9.3763891 12.240375 8.1662813 11.995125 7.4252799 11.643481 C 7.2180254 11.967409 6.8004696 12.518288 6.3530143 12.518481 L 5.5463736 12.518481 C 5.6773963 12.644206 5.819483 12.763464 5.974108 12.87395 C 7.1511911 13.715022 8.7857385 14.044271 11.222155 14.125903 L 11.218249 15.459887 L 15.056139 13.252856 L 11.228014 11.028247 z " />
    <g
       id="g12">
      <g
         id="path12"
         style="opacity:1" />
    </g>
  </g>
  <g
     id="path4-2"
     style="opacity:1">
    <g
       id="g16">
      <g
         id="path16"
         style="opacity:1" />
    </g>
  </g>
  <g
     id="path5"
     style="opacity:1">
    <g
       id="g8">
      <g
         id="path8"
         style="opacity:1" />
    </g>
  </g>
  <path
     id="rect4"
     style="fill:#e0e0e0;fill-opacity:1;stroke:none;stroke-width:1.05466;stroke-linecap:round;stroke-linejoin:miter;stroke-dasharray:none;stroke-opacity:1;paint-order:stroke markers fill"
     d="M 6.2707734,3.6526297 C 5.0806064,3.6488183 4.0898416,4.5654028 4.0012426,5.7522391 0.72938519,3.3336108 -1.5090473,8.4476016 1.7336646,9.5686456 v 1.6445314 c -9.12e-4,0.418133 0.337712,0.757632 0.755859,0.757812 h 4.5371098 c 0.418147,-1.8e-4 0.756771,-0.339679 0.755859,-0.757812 v -0.755859 l 2.1328127,1.421874 0.1367189,-0.0957 V 7.4338799 L 7.7824924,8.9455986 V 7.607708 C 9.3265504,6.2189026 8.3475464,3.6575557 6.2707734,3.6526297 Z"
     sodipodi:nodetypes="cccccccccccccc" />
</svg>
