<?xml version="1.0" encoding="UTF-8" standalone="no"?>
<svg
   width="16"
   height="16"
   version="1.1"
   id="svg1"
   sodipodi:docname="GoCamera2DHost.svg"
   inkscape:version="1.4.2 (f4327f4, 2025-05-13)"
   xml:space="preserve"
   xmlns:inkscape="http://www.inkscape.org/namespaces/inkscape"
   xmlns:sodipodi="http://sodipodi.sourceforge.net/DTD/sodipodi-0.dtd"
   xmlns="http://www.w3.org/2000/svg"
   xmlns:svg="http://www.w3.org/2000/svg"><defs
     id="defs1" /><sodipodi:namedview
     id="namedview1"
     pagecolor="#505050"
     bordercolor="#ffffff"
     borderopacity="1"
     inkscape:showpageshadow="0"
     inkscape:pageopacity="0"
     inkscape:pagecheckerboard="1"
     inkscape:deskcolor="#505050"
     showgrid="false"
     inkscape:zoom="69.208076"
     inkscape:cx="4.0168723"
     inkscape:cy="9.78932"
     inkscape:window-width="1920"
     inkscape:window-height="1001"
     inkscape:window-x="-9"
     inkscape:window-y="-9"
     inkscape:window-maximized="1"
     inkscape:current-layer="g3" /><g
     id="g4"
     transform="matrix(0.99999991,0,0,1.0000053,-0.18572024,-0.21739003)"><path
       fill="#8da5f3"
       d="M 10.136111,1.9593914 C 8.5526987,1.9550119 7.2349753,3.174749 7.117281,4.7537404 5.7061981,3.455485 3.4580334,3.7845779 2.4782824,5.4327966 6.075686,7.3199053 7.3043183,8.8599289 7.8584837,10.15842 c 0.4671566,1.094617 1.0611567,2.07572 3.2839053,2.869688 0.555751,0 1.006276,-0.450511 1.006277,-1.006246 l -1e-6,-1.006247 3.018828,2.012493 -1e-6,-6.037481 -3.018827,2.0124939 V 7.222064 C 14.20285,5.3735844 12.899572,1.9656136 10.136111,1.9593914 Z"
       id="path2-7-1"
       style="fill:#e0e0e0;fill-opacity:1;stroke-width:1.00626"
       inkscape:transform-center-x="0.52017051"
       inkscape:transform-center-y="-1.3871214"
       sodipodi:nodetypes="cccscscccccc" /><g
       id="g3"
       transform="matrix(0.8322028,0.59371873,-0.59371873,0.8322028,14.087788,6.3160897)"
       style="fill:none;fill-opacity:1;stroke:#8da5f3;stroke-opacity:1"><path
         id="rect3"
         style="stroke-width:0.954614;stroke-linecap:square;paint-order:fill markers stroke"
         d="m -5.0119539,6.9511232 h 4.02390737 c 0.55994952,0 1.01073921,0.4507897 1.01073921,1.0107392 v 0.7239073 c 0,0.5599495 -0.45078969,1.0107392 -1.01073921,1.0107392 H -5.0119539 c -0.5599496,0 -1.0107393,-0.4507897 -1.0107393,-1.0107392 V 7.9618624 c 0,-0.5599495 0.4507897,-1.0107392 1.0107393,-1.0107392 z M -8.5119535,5.4773068 h 4.0239084 c 0.5599495,0 1.0107392,0.4507897 1.0107392,1.0107393 v 0.7239072 c 0,0.5599495 -0.4507897,1.0107392 -1.0107392,1.0107392 h -4.0239084 c -0.5599495,0 -1.0107392,-0.4507897 -1.0107392,-1.0107392 V 6.4880461 c 0,-0.5599496 0.4507897,-1.0107393 1.0107392,-1.0107393 z" /></g></g></svg>
