<?xml version="1.0" encoding="UTF-8" standalone="no"?>
<svg
   width="16"
   height="16"
   version="1.1"
   id="svg1"
   sodipodi:docname="NodeCameraHost.svg"
   inkscape:version="1.4.2 (f4327f4, 2025-05-13)"
   xml:space="preserve"
   xmlns:inkscape="http://www.inkscape.org/namespaces/inkscape"
   xmlns:sodipodi="http://sodipodi.sourceforge.net/DTD/sodipodi-0.dtd"
   xmlns="http://www.w3.org/2000/svg"
   xmlns:svg="http://www.w3.org/2000/svg"><defs
     id="defs1" /><sodipodi:namedview
     id="namedview1"
     pagecolor="#505050"
     bordercolor="#ffffff"
     borderopacity="1"
     inkscape:showpageshadow="0"
     inkscape:pageopacity="0"
     inkscape:pagecheckerboard="1"
     inkscape:deskcolor="#505050"
     showgrid="false"
     inkscape:zoom="34.6"
     inkscape:cx="2.11"
     inkscape:cy="4.667"
     inkscape:window-width="1920"
     inkscape:window-height="1001"
     inkscape:window-x="-9"
     inkscape:window-y="-9"
     inkscape:window-maximized="1"
     inkscape:current-layer="g4" /><g
     id="g4"
     transform="matrix(0.99999991,0,0,1.0000053,-0.18572024,-0.21739003)"><path
       fill="#8da5f3"
       d="M 10.14,1.959 C 8.553,1.955 7.235,3.175 7.117,4.754 5.706,3.455 3.458,3.785 2.478,5.433 6.076,7.32 7.304,8.86 7.858,10.16 c 0.468,1.09 1.062,2.07 3.282,2.87 0.56,0 1.01,-0.45 1.01,-1.01 l 0,-1 3.02,2.01 0,-6.039 -3.02,2.012 V 7.222 C 14.2,5.374 12.9,1.966 10.14,1.959 Z"
       id="path2-7-1"
       style="fill:#e0e0e0;fill-opacity:1;stroke-width:1.00626;stroke:none;stroke-opacity:1"
       inkscape:transform-center-x="0.5202"
       inkscape:transform-center-y="-1.387"
       sodipodi:nodetypes="cccscscccccc" /><g
       id="g3"
       transform="matrix(0.8322028,0.59371873,-0.59371873,0.8322028,14.087788,6.3160897)"
       style="fill:none;fill-opacity:1;stroke:#8da5f3;stroke-opacity:1"><path
         style="baseline-shift:baseline;display:inline;overflow:visible;vector-effect:none;fill:#ff00ff;stroke:none;stroke-linecap:square;paint-order:fill markers stroke;enable-background:accumulate;stop-color:#000000;stop-opacity:1;opacity:1"
         d="M -8.512,5 C -9.328,5 -10,5.672 -10,6.488 v 0.725 c 0,0.816 0.672,1.486 1.488,1.486 h 2.018 c 0,0.809 0.671,1.471 1.482,1.471 h 4.0237 C -0.1722,10.17 0.5,9.502 0.5,8.686 V 7.961 C 0.5,7.145 -0.1722,6.475 -0.9883,6.475 H -3.006 C -3.015,5.666 -3.677,5 -4.488,5 Z m 0,0.955 h 4.024 c 0.296,0 0.508,0.227 0.519,0.52 h -1.043 c -0.732,0 -1.28,0.57 -1.398,1.271 h -2.102 c -0.303,0 -0.533,-0.229 -0.533,-0.533 V 6.488 c 0,-0.303 0.23,-0.533 0.533,-0.533 z m 3.5,1.473 h 0.842 c -0.09,0.13 -0.137,0.318 -0.318,0.318 H -5.33 c 0.09,-0.131 0.137,-0.318 0.318,-0.318 z m 1.922,0 h 2.1017 c 0.3038,0 0.5332,0.229 0.5332,0.533 v 0.725 c 0,0.303 -0.2294,0.533 -0.5332,0.533 H -5.012 c -0.296,0 -0.508,-0.228 -0.519,-0.52 h 1.043 c 0.732,0 1.28,-0.57 1.398,-1.271 z"
         id="rect3" /></g></g></svg>
