<?xml version="1.0" encoding="UTF-8" standalone="no"?>
<svg
   width="256"
   height="256"
   version="1.1"
   id="svg1"
   sodipodi:docname="NodeCameraEffect.svg"
   inkscape:version="1.4.2 (f4327f4, 2025-05-13)"
   xml:space="preserve"
   inkscape:export-filename="NodeCameraEffect.png"
   inkscape:export-xdpi="96"
   inkscape:export-ydpi="96"
   xmlns:inkscape="http://www.inkscape.org/namespaces/inkscape"
   xmlns:sodipodi="http://sodipodi.sourceforge.net/DTD/sodipodi-0.dtd"
   xmlns="http://www.w3.org/2000/svg"
   xmlns:svg="http://www.w3.org/2000/svg"><defs
     id="defs1" /><sodipodi:namedview
     id="namedview1"
     pagecolor="#505050"
     bordercolor="#ffffff"
     borderopacity="1"
     inkscape:showpageshadow="0"
     inkscape:pageopacity="0"
     inkscape:pagecheckerboard="1"
     inkscape:deskcolor="#505050"
     showgrid="false"
     inkscape:zoom="1.529"
     inkscape:cx="204"
     inkscape:cy="60.49"
     inkscape:window-width="1920"
     inkscape:window-height="1001"
     inkscape:window-x="-9"
     inkscape:window-y="-9"
     inkscape:window-maximized="1"
     inkscape:current-layer="svg1" /><path
     id="path2-7"
     style="fill:#e0e0e0;fill-opacity:1;stroke-width:1.00628"
     d="m 105.9,194.4 c -105.9248,-194.446 -105.9248,-194.446 0,0 z m 78.4,-142.84 -23.2,38.6 h 39.3 c 0.8,-14.72 -5.1,-28.92 -16.1,-38.6 z M 71.15,71.36 C 16.73,71.64 4.285,147.7 55.75,165.4 v 35.1 c 0,8.8 7.2,16 16.12,16.1 h 3.16 L 95.39,142.2 55.47,141.4 77.91,71.8 c -2.24,-0.4 -4.52,-0.48 -6.76,-0.44 z m 161.75,48.54 -48.3,32.2 v -23.5 l -65.1,88 h 48.9 c 9,0 16.2,-7.3 16.2,-16.1 v -16.2 l 48.3,32.3 z"
     sodipodi:nodetypes="cccccccccccccccccccccccc" /><path
     style="fill:#ff00ff;fill-opacity:1;stroke:none;stroke-width:0.557904;stroke-linecap:square;stroke-dasharray:none;stroke-opacity:1;paint-order:fill markers stroke"
     d="M 112,4.972 71.83,129.7 111.1,130.5 77.39,253.3 189.2,102.2 H 139.9 L 198.5,4.416 Z"
     id="path2"
     sodipodi:nodetypes="cccccccc" /><g
     id="path5"
     style="opacity:1" /></svg>
