<?xml version="1.0" encoding="UTF-8" standalone="no"?>
<svg
   width="16"
   height="16"
   version="1.1"
   id="svg1"
   sodipodi:docname="GoCamera2DGroup.svg"
   inkscape:version="1.4.2 (f4327f4, 2025-05-13)"
   xmlns:inkscape="http://www.inkscape.org/namespaces/inkscape"
   xmlns:sodipodi="http://sodipodi.sourceforge.net/DTD/sodipodi-0.dtd"
   xmlns="http://www.w3.org/2000/svg"
   xmlns:svg="http://www.w3.org/2000/svg">
  <defs
     id="defs1" />
  <sodipodi:namedview
     id="namedview1"
     pagecolor="#505050"
     bordercolor="#ffffff"
     borderopacity="1"
     inkscape:showpageshadow="0"
     inkscape:pageopacity="0"
     inkscape:pagecheckerboard="1"
     inkscape:deskcolor="#505050"
     showgrid="false"
     inkscape:zoom="45.254834"
     inkscape:cx="5.3916892"
     inkscape:cy="8.8056891"
     inkscape:window-width="1920"
     inkscape:window-height="1001"
     inkscape:window-x="-9"
     inkscape:window-y="-9"
     inkscape:window-maximized="1"
     inkscape:current-layer="g3" />
  <g
     id="g2"
     transform="matrix(1.1929899,0,0,1.1929899,2.6315455,4.7137222)">
    <g
       id="g4"
       transform="matrix(1.9967675,0,0,1.9967675,4.7353079,7.1502806)">
      <g
         id="path1"
         style="opacity:1"
         transform="matrix(0.81829803,-0.57479417,0.81829803,0.57479417,0,0)" />
      <g
         id="g3"
         transform="translate(0,-1.2180152)">
        <path
           id="rect4"
           style="fill:#e0e0e0;fill-opacity:1;stroke:none;stroke-width:0.44274;stroke-linecap:round;stroke-linejoin:miter;stroke-dasharray:none;stroke-opacity:1;paint-order:stroke markers fill"
           d="M 0.36344228 -4.0276776 A 0.95232617 0.95229791 0 0 0 -0.58929224 -3.1462752 A 0.95232617 0.95229791 0 1 0 -1.5412069 -1.5441725 L -1.5412069 -0.85380898 A 0.31744206 0.31743265 0 0 0 -1.223902 -0.5356842 L 0.68074715 -0.5356842 A 0.31744206 0.31743265 0 0 0 0.99805202 -0.85380898 L 0.99805202 -1.1711139 L 1.8933929 -0.57421994 L -0.11784444 0.84258321 L -2.9867068 -1.1776731 L -3.2662959 -0.97597546 L -0.11784444 1.2312202 L 3.030607 -0.97597546 L 2.7510179 -1.1776731 L 1.9507865 -0.61439549 L 1.9507865 -2.4403333 L 0.99805202 -1.8057236 L 0.99805202 -2.3673614 A 0.95232617 0.95229791 0 0 0 0.36344228 -4.0276776 z M -2.9867068 -0.42253673 L -3.2662959 -0.22083906 L -0.11784444 1.9879964 L 3.030607 -0.22083906 L 2.7510179 -0.42253673 L -0.11784444 1.5985395 L -2.9867068 -0.42253673 z " />
        <path
           id="path1-8"
           style="fill:#8da5f3;fill-opacity:1;stroke:none;stroke-width:0.44274;stroke-linecap:round;stroke-linejoin:miter;stroke-dasharray:none;stroke-opacity:1;paint-order:stroke markers fill"
           d="M 1.4965568,-2.8199513 C 1.4535807,-2.62649 1.3593811,-2.4397926 1.2087687,-2.280451 V -2.2001 l 0.6009935,-0.4001157 z m -3.8741835,0.450315 -0.872271,0.6163869 1.5274909,1.07244127 c -0.019359,-0.0545445 -0.028281,-0.11309659 -0.029517,-0.17382076 l -0.011595,-0.57000591 c -0.3630295,-0.2064195 -0.5903444,-0.567188 -0.6141079,-0.9450015 z m 4.5374901,0.016213 v 1.2003472 l 0.8543454,-0.6001736 z m -0.9729992,1.56012249 c -0.035935,0.2550845 -0.24114299,0.46669326 -0.50529714,0.46669316 H -1.2181626 L -0.11784444,0.44574714 1.422765,-0.63571313 Z"
           sodipodi:nodetypes="ccccccccscccccccscccc" />
      </g>
      <g
         id="path3"
         style="opacity:1" />
    </g>
  </g>
</svg>
